<?xml version="1.0" encoding="UTF-8" standalone="no"?>
<!DOCTYPE svg PUBLIC "-//W3C//DTD SVG 1.1//EN" "http://www.w3.org/Graphics/SVG/1.1/DTD/svg11.dtd">
<svg width="100%" height="100%" viewBox="0 0 631 470" version="1.1" xmlns="http://www.w3.org/2000/svg" xmlns:xlink="http://www.w3.org/1999/xlink" xml:space="preserve" xmlns:serif="http://www.serif.com/" style="fill-rule:evenodd;clip-rule:evenodd;stroke-linecap:round;stroke-linejoin:round;stroke-miterlimit:1.5;">
    <g transform="matrix(1,0,0,1,-188.675,-226.244)">
        <path d="M811.955,421.808C811.955,317.737 673.882,233.244 503.815,233.244C333.748,233.244 195.675,317.737 195.675,421.808C195.675,470.316 226.224,516.959 280.971,552.039C305.962,604.388 298.09,649.488 263.408,688.675C302.526,683.02 338.813,672.955 371.402,657.129C397.789,644.314 421.752,627.724 442.832,606.642C462.906,609.122 483.335,610.371 503.815,610.371C673.882,610.371 811.955,525.879 811.955,421.808Z" style="fill:white;stroke:black;stroke-width:14px;"/>
        <g transform="matrix(4.17051,0,0,4.47646,-1297.42,-1258.35)">
            <text x="375.941px" y="385.89px" style="font-family:'KomikaHand', 'Komika Hand';font-size:24px;">L<tspan x="389.957px 404.045px 420.221px 435.053px " y="385.89px 385.89px 385.89px 385.89px ">AIRB</tspan>NB<tspan x="479.669px " y="385.89px ">!</tspan></text>
        </g>
    </g>
</svg>
