<?xml version="1.0" encoding="UTF-8" standalone="no"?>
<!DOCTYPE svg PUBLIC "-//W3C//DTD SVG 1.1//EN" "http://www.w3.org/Graphics/SVG/1.1/DTD/svg11.dtd">
<svg width="100%" height="100%" viewBox="0 0 631 470" version="1.1" xmlns="http://www.w3.org/2000/svg" xmlns:xlink="http://www.w3.org/1999/xlink" xml:space="preserve" xmlns:serif="http://www.serif.com/" style="fill-rule:evenodd;clip-rule:evenodd;stroke-linecap:round;stroke-linejoin:round;stroke-miterlimit:1.5;">
    <g transform="matrix(1,0,0,1,-188.675,-226.244)">
        <path d="M811.955,421.808C811.955,317.737 673.882,233.244 503.815,233.244C333.748,233.244 195.675,317.737 195.675,421.808C195.675,470.316 226.224,516.959 280.971,552.039C305.962,604.388 298.09,649.488 263.408,688.675C302.526,683.02 338.813,672.955 371.402,657.129C397.789,644.314 421.752,627.724 442.832,606.642C462.906,609.122 483.335,610.371 503.815,610.371C673.882,610.371 811.955,525.879 811.955,421.808Z" style="fill:white;stroke:black;stroke-width:14px;"/>
        <g>
            <g transform="matrix(100.092,0,0,107.435,270.446,469.071)">
                <path d="M0.612,-0.201C0.612,-0.218 0.607,-0.234 0.598,-0.249C0.587,-0.266 0.573,-0.274 0.556,-0.274C0.547,-0.274 0.517,-0.263 0.467,-0.24C0.444,-0.23 0.423,-0.222 0.406,-0.215C0.389,-0.208 0.374,-0.201 0.361,-0.196L0.271,-0.164C0.237,-0.153 0.206,-0.148 0.178,-0.148C0.168,-0.148 0.161,-0.158 0.156,-0.179L0.153,-0.193L0.24,-0.715L0.241,-0.717C0.242,-0.74 0.235,-0.76 0.22,-0.777C0.204,-0.794 0.185,-0.803 0.164,-0.803C0.144,-0.803 0.13,-0.795 0.121,-0.778C0.113,-0.768 0.107,-0.751 0.102,-0.728C0.1,-0.719 0.098,-0.709 0.096,-0.701C0.094,-0.692 0.092,-0.682 0.091,-0.673C0.082,-0.635 0.075,-0.602 0.069,-0.573C0.063,-0.544 0.057,-0.52 0.052,-0.501C0.038,-0.423 0.028,-0.357 0.021,-0.302C0.014,-0.247 0.011,-0.201 0.011,-0.163C0.011,-0.112 0.022,-0.073 0.043,-0.048C0.067,-0.021 0.105,-0.007 0.156,-0.007C0.166,-0.007 0.18,-0.009 0.197,-0.012C0.214,-0.014 0.235,-0.019 0.26,-0.024C0.271,-0.027 0.283,-0.031 0.295,-0.035C0.307,-0.039 0.32,-0.044 0.334,-0.049C0.346,-0.054 0.358,-0.059 0.37,-0.064C0.382,-0.069 0.394,-0.074 0.407,-0.079C0.435,-0.09 0.459,-0.1 0.478,-0.109C0.497,-0.118 0.513,-0.125 0.526,-0.13C0.543,-0.139 0.561,-0.147 0.582,-0.154C0.602,-0.166 0.612,-0.182 0.612,-0.201Z" style="fill-rule:nonzero;"/>
            </g>
            <g transform="matrix(100.092,0,0,107.435,328.9,469.071)">
                <path d="M0.58,-0.045C0.58,-0.016 0.565,-0.002 0.535,-0.002C0.497,-0.002 0.474,-0.013 0.466,-0.034C0.464,-0.039 0.459,-0.06 0.45,-0.099C0.447,-0.112 0.443,-0.129 0.439,-0.148C0.435,-0.167 0.43,-0.19 0.423,-0.215C0.422,-0.221 0.42,-0.228 0.418,-0.236C0.416,-0.244 0.413,-0.254 0.409,-0.265C0.408,-0.266 0.406,-0.268 0.405,-0.271C0.403,-0.273 0.401,-0.276 0.4,-0.279C0.377,-0.278 0.351,-0.272 0.322,-0.263C0.309,-0.259 0.297,-0.255 0.285,-0.251C0.272,-0.247 0.26,-0.243 0.247,-0.238C0.236,-0.235 0.226,-0.232 0.219,-0.231C0.212,-0.23 0.206,-0.228 0.202,-0.227C0.186,-0.22 0.175,-0.211 0.169,-0.198C0.166,-0.193 0.16,-0.179 0.153,-0.156L0.121,-0.067C0.12,-0.062 0.118,-0.056 0.115,-0.049C0.112,-0.042 0.108,-0.033 0.103,-0.024C0.096,-0.013 0.084,-0.008 0.067,-0.008C0.051,-0.008 0.038,-0.012 0.027,-0.021C0.014,-0.03 0.008,-0.042 0.008,-0.059C0.008,-0.076 0.016,-0.104 0.031,-0.141L0.062,-0.227C0.07,-0.254 0.08,-0.282 0.092,-0.313C0.103,-0.343 0.116,-0.375 0.131,-0.41C0.142,-0.434 0.153,-0.46 0.165,-0.489C0.176,-0.518 0.188,-0.549 0.201,-0.583C0.219,-0.631 0.243,-0.681 0.274,-0.734C0.277,-0.739 0.281,-0.746 0.285,-0.754C0.289,-0.761 0.294,-0.77 0.3,-0.78C0.303,-0.785 0.309,-0.789 0.319,-0.792C0.329,-0.796 0.337,-0.798 0.343,-0.798C0.37,-0.798 0.389,-0.784 0.402,-0.757C0.403,-0.754 0.406,-0.746 0.409,-0.733C0.412,-0.72 0.417,-0.702 0.423,-0.679L0.472,-0.492C0.475,-0.477 0.478,-0.464 0.482,-0.454C0.485,-0.443 0.487,-0.433 0.49,-0.426C0.495,-0.417 0.507,-0.409 0.526,-0.401C0.543,-0.396 0.555,-0.387 0.561,-0.372C0.562,-0.371 0.562,-0.368 0.562,-0.363C0.562,-0.346 0.559,-0.334 0.554,-0.325C0.549,-0.32 0.544,-0.315 0.541,-0.312C0.537,-0.308 0.533,-0.303 0.529,-0.298C0.526,-0.295 0.525,-0.292 0.525,-0.288C0.525,-0.289 0.526,-0.286 0.527,-0.28C0.528,-0.274 0.53,-0.265 0.533,-0.252C0.536,-0.239 0.539,-0.227 0.542,-0.215C0.544,-0.202 0.547,-0.19 0.55,-0.178C0.553,-0.167 0.557,-0.157 0.56,-0.146C0.563,-0.135 0.567,-0.124 0.57,-0.113C0.577,-0.088 0.58,-0.066 0.58,-0.045ZM0.368,-0.398C0.367,-0.403 0.365,-0.414 0.362,-0.429C0.359,-0.444 0.355,-0.464 0.35,-0.488C0.339,-0.54 0.332,-0.567 0.33,-0.569C0.328,-0.572 0.324,-0.574 0.318,-0.575C0.307,-0.562 0.293,-0.532 0.276,-0.487C0.253,-0.422 0.241,-0.388 0.241,-0.383C0.241,-0.38 0.242,-0.374 0.245,-0.367L0.279,-0.367L0.327,-0.378C0.349,-0.384 0.363,-0.391 0.368,-0.398Z" style="fill-rule:nonzero;"/>
            </g>
            <g transform="matrix(100.092,0,0,107.435,387.654,469.071)">
                <path d="M0.624,-0.721C0.624,-0.687 0.597,-0.67 0.543,-0.67C0.513,-0.665 0.489,-0.66 0.471,-0.657C0.452,-0.654 0.439,-0.652 0.431,-0.652C0.416,-0.633 0.408,-0.588 0.408,-0.515L0.408,-0.508C0.408,-0.506 0.408,-0.503 0.407,-0.5L0.374,-0.185L0.374,-0.178C0.374,-0.165 0.375,-0.158 0.377,-0.156C0.379,-0.153 0.386,-0.152 0.399,-0.152C0.404,-0.155 0.409,-0.156 0.417,-0.157C0.424,-0.158 0.432,-0.158 0.441,-0.158C0.45,-0.158 0.457,-0.158 0.464,-0.159C0.471,-0.159 0.476,-0.159 0.48,-0.16C0.484,-0.161 0.494,-0.162 0.511,-0.165C0.527,-0.167 0.55,-0.17 0.58,-0.174C0.623,-0.149 0.63,-0.112 0.603,-0.064C0.601,-0.064 0.589,-0.062 0.567,-0.057C0.544,-0.051 0.516,-0.047 0.481,-0.043C0.472,-0.042 0.441,-0.038 0.388,-0.03C0.335,-0.021 0.264,-0.01 0.173,0.005C0.146,0.01 0.126,0.013 0.113,0.015C0.1,0.017 0.088,0.018 0.077,0.018C0.072,0.018 0.065,0.017 0.058,0.016C0.05,0.015 0.041,0.013 0.03,0.011C0.009,0.006 0,-0.013 0.003,-0.044C0.003,-0.063 0.012,-0.077 0.031,-0.086C0.036,-0.089 0.043,-0.091 0.052,-0.093C0.061,-0.094 0.072,-0.096 0.085,-0.099C0.09,-0.1 0.097,-0.102 0.106,-0.104C0.114,-0.105 0.124,-0.107 0.135,-0.109C0.149,-0.111 0.16,-0.113 0.168,-0.114C0.176,-0.115 0.181,-0.116 0.184,-0.117C0.203,-0.121 0.217,-0.127 0.227,-0.134C0.238,-0.143 0.246,-0.159 0.25,-0.184C0.251,-0.194 0.252,-0.204 0.253,-0.213C0.254,-0.222 0.255,-0.232 0.256,-0.241L0.278,-0.412C0.281,-0.444 0.284,-0.474 0.286,-0.503C0.288,-0.532 0.289,-0.558 0.289,-0.583C0.289,-0.602 0.29,-0.621 0.292,-0.638C0.275,-0.637 0.261,-0.636 0.252,-0.635L0.228,-0.634C0.225,-0.633 0.222,-0.633 0.219,-0.632C0.211,-0.631 0.201,-0.629 0.189,-0.627C0.177,-0.625 0.163,-0.623 0.148,-0.621C0.139,-0.62 0.131,-0.619 0.126,-0.618C0.121,-0.617 0.117,-0.617 0.116,-0.617C0.059,-0.617 0.031,-0.637 0.031,-0.678C0.031,-0.697 0.04,-0.711 0.058,-0.721C0.076,-0.73 0.103,-0.738 0.139,-0.743C0.153,-0.746 0.167,-0.748 0.182,-0.751C0.197,-0.754 0.211,-0.756 0.224,-0.758C0.235,-0.761 0.249,-0.763 0.265,-0.764C0.281,-0.765 0.297,-0.766 0.313,-0.768C0.322,-0.769 0.33,-0.769 0.338,-0.77C0.346,-0.771 0.354,-0.772 0.363,-0.773C0.372,-0.774 0.39,-0.776 0.417,-0.778C0.444,-0.78 0.481,-0.783 0.528,-0.786L0.593,-0.781C0.614,-0.756 0.624,-0.736 0.624,-0.721Z" style="fill-rule:nonzero;"/>
            </g>
            <g transform="matrix(100.092,0,0,107.435,455.116,469.071)">
                <path d="M0.608,-0.642L0.588,-0.565C0.574,-0.544 0.562,-0.527 0.552,-0.513C0.541,-0.498 0.532,-0.487 0.525,-0.479C0.518,-0.471 0.51,-0.463 0.502,-0.454C0.493,-0.445 0.484,-0.436 0.475,-0.427C0.444,-0.398 0.428,-0.381 0.428,-0.377L0.435,-0.364C0.437,-0.359 0.441,-0.353 0.446,-0.346C0.451,-0.338 0.458,-0.328 0.466,-0.317C0.474,-0.306 0.485,-0.29 0.498,-0.271C0.511,-0.251 0.526,-0.227 0.543,-0.199C0.582,-0.107 0.595,-0.058 0.583,-0.052L0.576,-0.022C0.567,-0.01 0.548,-0.003 0.52,0C0.486,0 0.458,-0.023 0.436,-0.069C0.434,-0.073 0.432,-0.079 0.429,-0.086C0.426,-0.093 0.423,-0.101 0.418,-0.11C0.415,-0.115 0.411,-0.122 0.406,-0.131C0.401,-0.14 0.396,-0.149 0.391,-0.16C0.38,-0.184 0.371,-0.203 0.364,-0.218C0.357,-0.233 0.351,-0.242 0.348,-0.247C0.327,-0.284 0.307,-0.308 0.288,-0.317C0.282,-0.319 0.276,-0.321 0.269,-0.322C0.262,-0.323 0.255,-0.324 0.247,-0.324C0.233,-0.324 0.223,-0.319 0.217,-0.309C0.216,-0.306 0.215,-0.302 0.214,-0.296C0.213,-0.289 0.212,-0.28 0.211,-0.269C0.21,-0.255 0.209,-0.245 0.209,-0.238C0.208,-0.231 0.208,-0.227 0.207,-0.226C0.205,-0.221 0.203,-0.213 0.202,-0.203C0.201,-0.193 0.199,-0.178 0.197,-0.158C0.195,-0.142 0.193,-0.126 0.191,-0.111C0.189,-0.096 0.186,-0.08 0.183,-0.065C0.18,-0.056 0.177,-0.046 0.174,-0.033C0.171,-0.028 0.165,-0.021 0.156,-0.012C0.147,-0.003 0.134,0.004 0.118,0.007C0.103,0.011 0.086,0.008 0.066,-0.001C0.046,-0.01 0.04,-0.039 0.049,-0.087C0.053,-0.112 0.056,-0.131 0.058,-0.146C0.06,-0.161 0.061,-0.17 0.062,-0.175C0.066,-0.215 0.068,-0.29 0.068,-0.4C0.068,-0.505 0.062,-0.572 0.051,-0.601C0.05,-0.604 0.047,-0.609 0.044,-0.616C0.04,-0.622 0.035,-0.631 0.028,-0.642C0.018,-0.657 0.013,-0.672 0.013,-0.687C0.013,-0.714 0.022,-0.733 0.04,-0.743C0.043,-0.746 0.048,-0.748 0.054,-0.75C0.06,-0.752 0.067,-0.755 0.076,-0.758C0.114,-0.772 0.155,-0.782 0.198,-0.789C0.241,-0.796 0.288,-0.799 0.338,-0.799C0.359,-0.799 0.379,-0.799 0.396,-0.798C0.413,-0.797 0.429,-0.794 0.443,-0.791C0.479,-0.786 0.514,-0.769 0.549,-0.74C0.589,-0.709 0.609,-0.676 0.608,-0.642ZM0.468,-0.631C0.458,-0.67 0.426,-0.689 0.372,-0.688C0.347,-0.683 0.326,-0.68 0.309,-0.677C0.292,-0.674 0.279,-0.671 0.27,-0.67C0.225,-0.662 0.199,-0.654 0.193,-0.645C0.188,-0.636 0.185,-0.614 0.185,-0.58C0.185,-0.497 0.198,-0.456 0.223,-0.456C0.235,-0.456 0.265,-0.466 0.312,-0.486C0.408,-0.517 0.46,-0.565 0.468,-0.631Z" style="fill-rule:nonzero;"/>
            </g>
            <g transform="matrix(100.092,0,0,107.435,516.973,469.071)">
                <path d="M0.646,-0.265C0.646,-0.201 0.611,-0.146 0.54,-0.1C0.513,-0.083 0.484,-0.068 0.451,-0.056C0.418,-0.043 0.382,-0.031 0.343,-0.022C0.316,-0.017 0.291,-0.012 0.27,-0.009C0.248,-0.006 0.227,-0.004 0.207,-0.004C0.171,-0.004 0.134,-0.01 0.095,-0.022C0.044,-0.036 0.019,-0.057 0.019,-0.085C0.019,-0.1 0.027,-0.112 0.043,-0.122C0.06,-0.132 0.068,-0.149 0.068,-0.174C0.068,-0.171 0.068,-0.174 0.068,-0.183C0.067,-0.191 0.067,-0.205 0.066,-0.224C0.065,-0.227 0.065,-0.243 0.065,-0.272L0.065,-0.403C0.065,-0.41 0.065,-0.418 0.064,-0.427C0.063,-0.435 0.063,-0.442 0.063,-0.447L0.063,-0.562C0.063,-0.579 0.063,-0.596 0.064,-0.613C0.065,-0.63 0.066,-0.646 0.067,-0.662C0.067,-0.671 0.064,-0.679 0.059,-0.684C0.054,-0.692 0.052,-0.705 0.055,-0.722C0.058,-0.731 0.062,-0.739 0.066,-0.745C0.069,-0.751 0.073,-0.756 0.077,-0.76C0.092,-0.777 0.117,-0.789 0.15,-0.794C0.183,-0.799 0.226,-0.801 0.279,-0.801C0.286,-0.801 0.297,-0.8 0.311,-0.799C0.325,-0.798 0.344,-0.795 0.367,-0.792C0.39,-0.789 0.409,-0.786 0.423,-0.783C0.436,-0.78 0.445,-0.778 0.449,-0.777C0.489,-0.767 0.523,-0.746 0.551,-0.715C0.58,-0.684 0.584,-0.626 0.562,-0.541C0.559,-0.536 0.555,-0.53 0.551,-0.525C0.547,-0.52 0.541,-0.513 0.534,-0.506C0.523,-0.492 0.518,-0.484 0.518,-0.481C0.518,-0.475 0.53,-0.46 0.555,-0.437C0.567,-0.427 0.578,-0.415 0.588,-0.402C0.598,-0.389 0.607,-0.374 0.616,-0.358C0.636,-0.323 0.646,-0.292 0.646,-0.265ZM0.46,-0.63C0.46,-0.676 0.408,-0.699 0.303,-0.699C0.303,-0.699 0.297,-0.699 0.286,-0.698C0.274,-0.697 0.257,-0.695 0.236,-0.693C0.233,-0.692 0.228,-0.692 0.223,-0.691C0.217,-0.69 0.211,-0.687 0.205,-0.684C0.191,-0.671 0.184,-0.625 0.184,-0.546C0.184,-0.543 0.184,-0.539 0.185,-0.534C0.185,-0.529 0.185,-0.524 0.186,-0.519C0.188,-0.506 0.189,-0.497 0.189,-0.492C0.196,-0.485 0.203,-0.482 0.212,-0.482C0.237,-0.482 0.266,-0.487 0.301,-0.498C0.337,-0.508 0.364,-0.52 0.382,-0.535C0.434,-0.575 0.46,-0.607 0.46,-0.63ZM0.48,-0.21C0.534,-0.254 0.538,-0.301 0.492,-0.35C0.446,-0.399 0.419,-0.423 0.411,-0.423C0.408,-0.423 0.39,-0.416 0.359,-0.403C0.342,-0.397 0.329,-0.392 0.319,-0.389C0.308,-0.385 0.301,-0.383 0.297,-0.382C0.294,-0.381 0.287,-0.38 0.278,-0.378C0.268,-0.375 0.255,-0.372 0.238,-0.369L0.214,-0.361C0.205,-0.356 0.197,-0.354 0.19,-0.354C0.189,-0.354 0.188,-0.354 0.189,-0.355C0.185,-0.348 0.183,-0.336 0.183,-0.319L0.184,-0.285C0.184,-0.258 0.185,-0.232 0.187,-0.208C0.189,-0.184 0.192,-0.161 0.195,-0.139L0.205,-0.128L0.213,-0.128C0.234,-0.127 0.263,-0.13 0.3,-0.137C0.319,-0.14 0.335,-0.143 0.349,-0.147C0.362,-0.15 0.374,-0.153 0.385,-0.157C0.403,-0.163 0.42,-0.171 0.435,-0.18C0.45,-0.189 0.465,-0.199 0.48,-0.21Z" style="fill-rule:nonzero;"/>
            </g>
            <g transform="matrix(100.092,0,0,107.435,581.332,469.071)">
                <path d="M0.62,-0.256C0.62,-0.243 0.62,-0.226 0.619,-0.206C0.618,-0.186 0.616,-0.163 0.615,-0.138C0.611,-0.07 0.606,-0.032 0.601,-0.025C0.593,-0.01 0.581,-0.002 0.564,-0.002C0.537,-0.002 0.496,-0.025 0.442,-0.07C0.419,-0.09 0.398,-0.109 0.381,-0.126C0.364,-0.143 0.349,-0.16 0.338,-0.175C0.333,-0.182 0.327,-0.191 0.321,-0.202C0.314,-0.213 0.306,-0.225 0.297,-0.239C0.291,-0.246 0.281,-0.258 0.266,-0.276C0.259,-0.287 0.251,-0.301 0.241,-0.316C0.231,-0.331 0.219,-0.35 0.204,-0.371L0.208,-0.367C0.209,-0.367 0.209,-0.367 0.208,-0.368L0.197,-0.385C0.18,-0.407 0.165,-0.418 0.154,-0.418C0.151,-0.418 0.149,-0.405 0.149,-0.38L0.149,-0.35C0.149,-0.347 0.149,-0.344 0.148,-0.341L0.148,-0.233L0.152,-0.179L0.16,-0.074C0.163,-0.058 0.16,-0.043 0.152,-0.03C0.144,-0.014 0.133,-0.006 0.119,-0.006C0.11,-0.006 0.091,-0.007 0.063,-0.009C0.042,-0.022 0.029,-0.036 0.024,-0.051C0.02,-0.067 0.02,-0.093 0.024,-0.128C0.023,-0.142 0.023,-0.156 0.023,-0.17C0.022,-0.184 0.022,-0.198 0.022,-0.212C0.02,-0.229 0.018,-0.249 0.017,-0.272C0.015,-0.294 0.013,-0.319 0.012,-0.346C0.01,-0.383 0.009,-0.405 0.009,-0.414C0.009,-0.415 0.01,-0.43 0.012,-0.457L0.016,-0.547C0.018,-0.58 0.019,-0.597 0.019,-0.6L0.019,-0.685C0.019,-0.69 0.02,-0.697 0.022,-0.706C0.023,-0.711 0.023,-0.715 0.024,-0.718C0.024,-0.721 0.024,-0.724 0.024,-0.725C0.029,-0.769 0.048,-0.791 0.081,-0.791C0.111,-0.791 0.134,-0.78 0.149,-0.759C0.154,-0.752 0.161,-0.74 0.168,-0.725C0.174,-0.71 0.183,-0.688 0.194,-0.661C0.225,-0.586 0.253,-0.53 0.277,-0.495C0.292,-0.474 0.308,-0.452 0.323,-0.43C0.338,-0.408 0.353,-0.386 0.368,-0.364C0.419,-0.291 0.449,-0.255 0.46,-0.255C0.468,-0.255 0.472,-0.258 0.473,-0.264C0.476,-0.274 0.479,-0.307 0.481,-0.362C0.484,-0.419 0.485,-0.454 0.484,-0.465L0.461,-0.741C0.46,-0.759 0.463,-0.774 0.472,-0.785C0.481,-0.796 0.494,-0.802 0.512,-0.802C0.529,-0.802 0.546,-0.794 0.562,-0.778C0.579,-0.766 0.59,-0.751 0.595,-0.733C0.599,-0.715 0.603,-0.692 0.606,-0.665C0.608,-0.637 0.611,-0.603 0.612,-0.563C0.612,-0.554 0.612,-0.542 0.613,-0.529C0.613,-0.515 0.613,-0.498 0.614,-0.479C0.615,-0.475 0.615,-0.47 0.616,-0.463C0.616,-0.456 0.616,-0.447 0.616,-0.438C0.617,-0.377 0.618,-0.331 0.619,-0.301C0.62,-0.271 0.62,-0.256 0.62,-0.256Z" style="fill-rule:nonzero;"/>
            </g>
            <g transform="matrix(100.092,0,0,107.435,645.491,469.071)">
                <path d="M0.646,-0.265C0.646,-0.201 0.611,-0.146 0.54,-0.1C0.513,-0.083 0.484,-0.068 0.451,-0.056C0.418,-0.043 0.382,-0.031 0.343,-0.022C0.316,-0.017 0.291,-0.012 0.27,-0.009C0.248,-0.006 0.227,-0.004 0.207,-0.004C0.171,-0.004 0.134,-0.01 0.095,-0.022C0.044,-0.036 0.019,-0.057 0.019,-0.085C0.019,-0.1 0.027,-0.112 0.043,-0.122C0.06,-0.132 0.068,-0.149 0.068,-0.174C0.068,-0.171 0.068,-0.174 0.068,-0.183C0.067,-0.191 0.067,-0.205 0.066,-0.224C0.065,-0.227 0.065,-0.243 0.065,-0.272L0.065,-0.403C0.065,-0.41 0.065,-0.418 0.064,-0.427C0.063,-0.435 0.063,-0.442 0.063,-0.447L0.063,-0.562C0.063,-0.579 0.063,-0.596 0.064,-0.613C0.065,-0.63 0.066,-0.646 0.067,-0.662C0.067,-0.671 0.064,-0.679 0.059,-0.684C0.054,-0.692 0.052,-0.705 0.055,-0.722C0.058,-0.731 0.062,-0.739 0.066,-0.745C0.069,-0.751 0.073,-0.756 0.077,-0.76C0.092,-0.777 0.117,-0.789 0.15,-0.794C0.183,-0.799 0.226,-0.801 0.279,-0.801C0.286,-0.801 0.297,-0.8 0.311,-0.799C0.325,-0.798 0.344,-0.795 0.367,-0.792C0.39,-0.789 0.409,-0.786 0.423,-0.783C0.436,-0.78 0.445,-0.778 0.449,-0.777C0.489,-0.767 0.523,-0.746 0.551,-0.715C0.58,-0.684 0.584,-0.626 0.562,-0.541C0.559,-0.536 0.555,-0.53 0.551,-0.525C0.547,-0.52 0.541,-0.513 0.534,-0.506C0.523,-0.492 0.518,-0.484 0.518,-0.481C0.518,-0.475 0.53,-0.46 0.555,-0.437C0.567,-0.427 0.578,-0.415 0.588,-0.402C0.598,-0.389 0.607,-0.374 0.616,-0.358C0.636,-0.323 0.646,-0.292 0.646,-0.265ZM0.46,-0.63C0.46,-0.676 0.408,-0.699 0.303,-0.699C0.303,-0.699 0.297,-0.699 0.286,-0.698C0.274,-0.697 0.257,-0.695 0.236,-0.693C0.233,-0.692 0.228,-0.692 0.223,-0.691C0.217,-0.69 0.211,-0.687 0.205,-0.684C0.191,-0.671 0.184,-0.625 0.184,-0.546C0.184,-0.543 0.184,-0.539 0.185,-0.534C0.185,-0.529 0.185,-0.524 0.186,-0.519C0.188,-0.506 0.189,-0.497 0.189,-0.492C0.196,-0.485 0.203,-0.482 0.212,-0.482C0.237,-0.482 0.266,-0.487 0.301,-0.498C0.337,-0.508 0.364,-0.52 0.382,-0.535C0.434,-0.575 0.46,-0.607 0.46,-0.63ZM0.48,-0.21C0.534,-0.254 0.538,-0.301 0.492,-0.35C0.446,-0.399 0.419,-0.423 0.411,-0.423C0.408,-0.423 0.39,-0.416 0.359,-0.403C0.342,-0.397 0.329,-0.392 0.319,-0.389C0.308,-0.385 0.301,-0.383 0.297,-0.382C0.294,-0.381 0.287,-0.38 0.278,-0.378C0.268,-0.375 0.255,-0.372 0.238,-0.369L0.214,-0.361C0.205,-0.356 0.197,-0.354 0.19,-0.354C0.189,-0.354 0.188,-0.354 0.189,-0.355C0.185,-0.348 0.183,-0.336 0.183,-0.319L0.184,-0.285C0.184,-0.258 0.185,-0.232 0.187,-0.208C0.189,-0.184 0.192,-0.161 0.195,-0.139L0.205,-0.128L0.213,-0.128C0.234,-0.127 0.263,-0.13 0.3,-0.137C0.319,-0.14 0.335,-0.143 0.349,-0.147C0.362,-0.15 0.374,-0.153 0.385,-0.157C0.403,-0.163 0.42,-0.171 0.435,-0.18C0.45,-0.189 0.465,-0.199 0.48,-0.21Z" style="fill-rule:nonzero;"/>
            </g>
            <g transform="matrix(100.092,0,0,107.435,703.044,469.071)">
                <path d="M0.33,-0.73C0.33,-0.717 0.316,-0.675 0.289,-0.604C0.256,-0.52 0.238,-0.473 0.235,-0.463C0.23,-0.444 0.223,-0.419 0.215,-0.389C0.207,-0.359 0.197,-0.324 0.184,-0.284C0.172,-0.246 0.16,-0.224 0.148,-0.217C0.141,-0.212 0.132,-0.21 0.121,-0.21C0.108,-0.21 0.097,-0.214 0.09,-0.223C0.082,-0.231 0.078,-0.242 0.078,-0.255C0.078,-0.258 0.086,-0.287 0.103,-0.343L0.152,-0.524C0.157,-0.539 0.163,-0.556 0.169,-0.577C0.175,-0.597 0.182,-0.621 0.191,-0.65C0.196,-0.665 0.201,-0.68 0.206,-0.694C0.21,-0.708 0.215,-0.721 0.22,-0.733C0.229,-0.753 0.236,-0.765 0.24,-0.769C0.249,-0.781 0.261,-0.787 0.276,-0.787C0.288,-0.787 0.3,-0.781 0.313,-0.768C0.324,-0.756 0.33,-0.743 0.33,-0.73ZM0.176,-0.071C0.176,-0.046 0.165,-0.026 0.143,-0.011C0.121,0.005 0.097,0.013 0.072,0.013C0.055,0.013 0.039,0.005 0.025,-0.01C0.012,-0.025 0.005,-0.041 0.005,-0.058C0.005,-0.083 0.016,-0.103 0.039,-0.118C0.06,-0.131 0.083,-0.137 0.107,-0.137C0.153,-0.137 0.176,-0.115 0.176,-0.071Z" style="fill-rule:nonzero;"/>
            </g>
        </g>
    </g>
</svg>
